<?xml version="1.0" encoding="UTF-8" standalone="no"?>
<!DOCTYPE svg PUBLIC "-//W3C//DTD SVG 1.1//EN" "http://www.w3.org/Graphics/SVG/1.1/DTD/svg11.dtd">
<svg version="1.1" xmlns="http://www.w3.org/2000/svg" xmlns:xlink="http://www.w3.org/1999/xlink" preserveAspectRatio="xMidYMid meet" viewBox="0 0 640 640" width="640" height="640"><defs><path d="M312.18 445.52C307.18 450.52 300.4 453.33 293.33 453.33C286.25 453.33 279.47 450.52 274.47 445.52C247.8 418.86 34.48 205.52 7.81 178.86C-2.6 168.44 -2.6 151.56 7.81 141.14C18.22 130.73 35.11 130.73 45.52 141.14C62.04 157.66 144.64 240.27 293.33 388.95C442.02 240.27 524.62 157.66 541.14 141.14C546.35 135.94 553.18 133.33 560 133.33C566.82 133.33 573.65 135.94 578.86 141.15C589.27 151.56 589.27 168.44 578.86 178.86C525.52 232.19 338.85 418.86 312.18 445.52Z" id="b31Zb2f9x"></path></defs><g><g><g><use xlink:href="#b31Zb2f9x" opacity="1" fill="#000000" fill-opacity="1"></use><g><use xlink:href="#b31Zb2f9x" opacity="1" fill-opacity="0" stroke="#000000" stroke-width="1" stroke-opacity="0"></use></g></g></g></g></svg>